<?xml version="1.0" standalone="no"?>
<!DOCTYPE svg PUBLIC "-//W3C//DTD SVG 1.1//EN" "http://www.w3.org/Graphics/SVG/1.1/DTD/svg11.dtd" >
<svg>
<metadata>
Created by FontForge 20120731 at Mon Feb 15 09:36:47 2016
 By www-data
Typeface (c)Chequered Ink. 2016. All Rights Reserved
</metadata>
<defs>
<font id="CrystalCathedral" horiz-adv-x="800" >
  <font-face 
    font-family="Crystal Cathedral"
    font-weight="400"
    font-stretch="normal"
    units-per-em="2048"
    panose-1="2 0 5 0 0 0 0 0 0 0"
    ascent="1638"
    descent="-410"
    x-height="1000"
    cap-height="1400"
    bbox="-250 -400 1400 1810"
    underline-thickness="150"
    underline-position="-142"
    unicode-range="U+0020-00FF"
  />
    <missing-glyph />
    <glyph glyph-name="space" unicode=" " horiz-adv-x="508" 
 />
    <glyph glyph-name="space" unicode="&#xa0;" horiz-adv-x="508" 
 />
    <glyph glyph-name="exclam" unicode="!" horiz-adv-x="200" 
d="M100 1400v-1100h-100v1100h100zM100 100v-100h-100v100h100z" />
    <glyph glyph-name="quotedbl" unicode="&#x22;" horiz-adv-x="400" 
d="M100 1400v-300h-100v300h100zM300 1400v-300h-100v300h100z" />
    <glyph glyph-name="numbersign" unicode="#" 
d="M150 400v600h-150v100h150v300h100v-300h200v300h100v-300h150v-100h-150v-600h150v-100h-150v-300h-100v300h-200v-300h-100v300h-150v100h150zM250 1000v-600h200v600h-200z" />
    <glyph glyph-name="dollar" unicode="$" 
d="M300 1295q-72 -13 -127 -68q-73 -73 -73 -177v-50q0 -104 73 -177q55 -55 127 -68v540zM600 400q0 104 -73 177q-55 55 -127 68v-540q72 13 127 68q73 73 73 177v50zM0 1050q0 145 103 248q84 84 197 99v153h100v-153q113 -15 198 -99q102 -103 102 -248v-150h-100v150
q0 104 -73 177q-55 55 -127 68v-548q113 -15 198 -99q102 -103 102 -248v-50q0 -145 -102 -247q-85 -85 -198 -100v-153h-100v153q-113 15 -197 100q-103 102 -103 247v150h100v-150q0 -104 73 -177q55 -55 127 -68v548q-113 15 -197 100q-103 102 -103 247v50z" />
    <glyph glyph-name="percent" unicode="%" 
d="M699 1400l-590 -1400h-108l590 1400h108zM341.5 1341.5q58.5 -58.5 58.5 -141.5t-58.5 -141.5t-141.5 -58.5t-141.5 58.5t-58.5 141.5t58.5 141.5t141.5 58.5t141.5 -58.5zM200 1300q-41 0 -70.5 -29.5t-29.5 -70.5t29.5 -70.5t70.5 -29.5t70.5 29.5t29.5 70.5
t-29.5 70.5t-70.5 29.5zM641.5 341.5q58.5 -58.5 58.5 -141.5t-58.5 -141.5t-141.5 -58.5t-141.5 58.5t-58.5 141.5t58.5 141.5t141.5 58.5t141.5 -58.5zM500 300q-41 0 -70.5 -29.5t-29.5 -70.5t29.5 -70.5t70.5 -29.5t70.5 29.5t29.5 70.5t-29.5 70.5t-70.5 29.5z" />
    <glyph glyph-name="ampersand" unicode="&#x26;" horiz-adv-x="1050" 
d="M700 1050v-50h-100v50q0 104 -73 177t-177 73t-177 -73t-73 -177v-50q0 -104 73 -177t177 -73h250v100h100v-100h250v-100h-250v-300q0 -104 73 -177t177 -73v-100q-145 0 -247 103q-31 30 -53 65q-22 -35 -52 -65q-103 -103 -248 -103t-247.5 102.5t-102.5 247.5v50
q0 145 103 248q30 30 65 52q-35 22 -65 53q-103 102 -103 247v50q0 145 102.5 247.5t247.5 102.5t247.5 -102.5t102.5 -247.5zM350 650q-104 0 -177 -73t-73 -177v-50q0 -104 73 -177t177 -73t177 73t73 177v300h-250z" />
    <glyph glyph-name="quotesingle" unicode="'" horiz-adv-x="200" 
d="M100 1400v-300h-100v300h100z" />
    <glyph glyph-name="parenleft" unicode="(" horiz-adv-x="450" 
d="M0 1150q0 145 102.5 247.5t247.5 102.5v-100q-104 0 -177 -73t-73 -177v-900q0 -104 73 -177t177 -73v-100q-145 0 -247.5 102.5t-102.5 247.5v900z" />
    <glyph glyph-name="parenright" unicode=")" horiz-adv-x="450" 
d="M350 250q0 -145 -102.5 -247.5t-247.5 -102.5v100q104 0 177 73t73 177v900q0 104 -73 177t-177 73v100q145 0 247.5 -102.5t102.5 -247.5v-900z" />
    <glyph glyph-name="asterisk" unicode="*" horiz-adv-x="650" 
d="M325 1212l163 94l50 -87l-163 -94l163 -94l-50 -87l-163 94v-188h-100v188l-163 -94l-50 87l163 94l-163 94l50 87l163 -94v188h100v-188z" />
    <glyph glyph-name="plus" unicode="+" horiz-adv-x="650" 
d="M325 750h225v-100h-225v-225h-100v225h-225v100h225v225h100v-225z" />
    <glyph glyph-name="comma" unicode="," horiz-adv-x="200" 
d="M100 100v-300h-100v300h100z" />
    <glyph glyph-name="hyphen" unicode="-" horiz-adv-x="650" 
d="M550 750v-100h-550v100h550z" />
    <glyph glyph-name="hyphen" unicode="&#xad;" horiz-adv-x="650" 
d="M550 750v-100h-550v100h550z" />
    <glyph glyph-name="period" unicode="." horiz-adv-x="200" 
d="M100 100v-100h-100v100h100z" />
    <glyph glyph-name="slash" unicode="/" 
d="M699 1400l-590 -1400h-108l590 1400h108z" />
    <glyph glyph-name="zero" unicode="0" 
d="M0 1050q0 145 102.5 247.5t247.5 102.5t247.5 -102.5t102.5 -247.5v-700q0 -145 -102.5 -247.5t-247.5 -102.5t-247.5 102.5t-102.5 247.5v700zM600 1050q0 104 -73 177t-177 73t-177 -73t-73 -177v-700q0 -104 73 -177t177 -73t177 73t73 177v700z" />
    <glyph glyph-name="one" unicode="1" horiz-adv-x="300" 
d="M200 0h-100v1300h-100v100h200v-1400z" />
    <glyph glyph-name="two" unicode="2" 
d="M100 1050v-150h-100v150q0 145 102.5 247.5t247.5 102.5t247.5 -102.5t102.5 -247.5v-50q0 -145 -102.5 -247.5t-247.5 -102.5q-104 0 -177 -73t-73 -177v-300h600v-100h-700v400q0 145 102.5 247.5t247.5 102.5q104 0 177 73t73 177v50q0 104 -73 177t-177 73t-177 -73
t-73 -177z" />
    <glyph glyph-name="three" unicode="3" 
d="M100 1050v-150h-100v150q0 145 102.5 247.5t247.5 102.5t247.5 -102.5t102.5 -247.5v-50q0 -145 -102 -247q-31 -31 -66 -53q35 -22 66 -52q102 -103 102 -248v-50q0 -145 -102.5 -247.5t-247.5 -102.5t-247.5 102.5t-102.5 247.5v150h100v-150q0 -104 73 -177t177 -73
t177 73t73 177v50q0 104 -73 177t-177 73h-100v100h100q104 0 177 73t73 177v50q0 104 -73 177t-177 73t-177 -73t-73 -177z" />
    <glyph glyph-name="four" unicode="4" 
d="M0 1400h100v-650h500v650h100v-1400h-100v650h-600v750z" />
    <glyph glyph-name="five" unicode="5" 
d="M0 350v150h100v-150q0 -104 73 -177t177 -73t177 73t73 177v150q0 104 -73 177t-177 73h-350v650h700v-100h-600v-450h250q145 0 247.5 -102.5t102.5 -247.5v-150q0 -145 -102.5 -247.5t-247.5 -102.5t-247.5 102.5t-102.5 247.5z" />
    <glyph glyph-name="six" unicode="6" 
d="M700 1050v-150h-100v150q0 104 -73 177t-177 73t-177 -73t-73 -177v-300h250q145 0 247.5 -102.5t102.5 -247.5v-50q0 -145 -102.5 -247.5t-247.5 -102.5t-247.5 102.5t-102.5 247.5v700q0 145 102.5 247.5t247.5 102.5t247.5 -102.5t102.5 -247.5zM350 650h-250v-300
q0 -104 73 -177t177 -73t177 73t73 177v50q0 104 -73 177t-177 73z" />
    <glyph glyph-name="seven" unicode="7" 
d="M699 1400l-590 -1400h-108l548 1300h-549v100h699z" />
    <glyph glyph-name="eight" unicode="8" 
d="M350 650q-104 0 -177 -73t-73 -177v-50q0 -104 73 -177t177 -73t177 73t73 177v50q0 104 -73 177t-177 73zM350 1400q145 0 247.5 -102.5t102.5 -247.5v-50q0 -145 -102 -247q-31 -31 -66 -53q35 -22 66 -52q102 -103 102 -248v-50q0 -145 -102.5 -247.5t-247.5 -102.5
t-247.5 102.5t-102.5 247.5v50q0 145 103 248q30 30 65 52q-35 22 -65 53q-103 102 -103 247v50q0 145 102.5 247.5t247.5 102.5zM600 1050q0 104 -73 177t-177 73t-177 -73t-73 -177v-50q0 -104 73 -177t177 -73t177 73t73 177v50z" />
    <glyph glyph-name="nine" unicode="9" 
d="M0 350v150h100v-150q0 -104 73 -177t177 -73t177 73t73 177v300h-250q-145 0 -247.5 102.5t-102.5 247.5v50q0 145 102.5 247.5t247.5 102.5t247.5 -102.5t102.5 -247.5v-700q0 -145 -102.5 -247.5t-247.5 -102.5t-247.5 102.5t-102.5 247.5zM350 750h250v300
q0 104 -73 177t-177 73t-177 -73t-73 -177v-50q0 -104 73 -177t177 -73z" />
    <glyph glyph-name="colon" unicode=":" horiz-adv-x="200" 
d="M100 100v-100h-100v100h100zM100 1024v-100h-100v100h100z" />
    <glyph glyph-name="semicolon" unicode=";" horiz-adv-x="200" 
d="M100 100v-300h-100v300h100zM100 1024v-100h-100v100h100z" />
    <glyph glyph-name="semicolon" unicode="&#x37e;" horiz-adv-x="200" 
d="M100 100v-300h-100v300h100zM100 1024v-100h-100v100h100z" />
    <glyph glyph-name="less" unicode="&#x3c;" horiz-adv-x="1100" 
d="M0 756l1000 294v-112l-863 -245l863 -245v-112l-1000 294v126z" />
    <glyph glyph-name="equal" unicode="=" horiz-adv-x="650" 
d="M550 650v-100h-550v100h550zM550 850v-100h-550v100h550z" />
    <glyph glyph-name="greater" unicode="&#x3e;" horiz-adv-x="1100" 
d="M1000 630l-1000 -294v112l863 245l-863 245v112l1000 -294v-126z" />
    <glyph glyph-name="question" unicode="?" 
d="M100 1050v-150h-100v150q0 145 102.5 247.5t247.5 102.5t247.5 -102.5t102.5 -247.5v-50q0 -145 -102 -247q-85 -85 -198 -100v-353h-100v450h50q104 0 177 73t73 177v50q0 104 -73 177t-177 73t-177 -73t-73 -177zM400 100v-100h-100v100h100z" />
    <glyph glyph-name="at" unicode="@" horiz-adv-x="1500" 
d="M350 550v300q0 145 102.5 247.5t247.5 102.5t247.5 -102.5t102.5 -247.5v-639q39 29 75 65q175 175 175 424t-175.5 424.5t-424.5 175.5t-424.5 -175.5t-175.5 -424.5t175.5 -424.5t424.5 -175.5q188 0 334 100h-84v105l-2 -2q-103 -103 -248 -103t-247.5 102.5
t-102.5 247.5zM950 850q0 104 -73 177t-177 73t-177 -73t-73 -177v-300q0 -104 73 -177t177 -73t177 73t73 177v300zM1400 700q0 -290 -205 -495t-495 -205t-495 205t-205 495t205 495t495 205t495 -205t205 -495z" />
    <glyph glyph-name="A" unicode="A" 
d="M349 1214l-160 -764h321zM168 350l-74 -350h-102l294 1400h126l294 -1400h-102l-73 350h-363z" />
    <glyph glyph-name="B" unicode="B" 
d="M600 1050q0 104 -73 177t-177 73h-250v-550h250q104 0 177 73t73 177v50zM350 650h-250v-550h250q104 0 177 73t73 177v50q0 104 -73 177t-177 73zM350 1400q145 0 247.5 -102.5t102.5 -247.5v-50q0 -145 -102 -247q-31 -31 -66 -53q35 -22 66 -52q102 -103 102 -248v-50
q0 -145 -102.5 -247.5t-247.5 -102.5h-350v1400h350z" />
    <glyph glyph-name="C" unicode="C" 
d="M700 1050v-150h-100v150q0 104 -73 177t-177 73t-177 -73t-73 -177v-700q0 -104 73 -177t177 -73t177 73t73 177v150h100v-150q0 -145 -102.5 -247.5t-247.5 -102.5t-247.5 102.5t-102.5 247.5v700q0 145 102.5 247.5t247.5 102.5t247.5 -102.5t102.5 -247.5z" />
    <glyph glyph-name="D" unicode="D" 
d="M600 1050q0 104 -73 177t-177 73h-250v-1200h250q104 0 177 73t73 177v700zM350 1400q145 0 247.5 -102.5t102.5 -247.5v-700q0 -145 -102.5 -247.5t-247.5 -102.5h-350v1400h350z" />
    <glyph glyph-name="E" unicode="E" 
d="M700 1400v-100h-600v-550h450v-100h-450v-550h600v-100h-700v1400h700z" />
    <glyph glyph-name="F" unicode="F" 
d="M700 1400v-100h-600v-550h600v-100h-600v-650h-100v1400h700z" />
    <glyph glyph-name="G" unicode="G" 
d="M700 1050v-150h-100v150q0 104 -73 177t-177 73t-177 -73t-73 -177v-700q0 -104 73 -177t177 -73t177 73t73 177v300h-250v100h350v-400q0 -145 -102.5 -247.5t-247.5 -102.5t-247.5 102.5t-102.5 247.5v700q0 145 102.5 247.5t247.5 102.5t247.5 -102.5t102.5 -247.5z
" />
    <glyph glyph-name="H" unicode="H" 
d="M0 1400h100v-650h500v650h100v-1400h-100v650h-500v-650h-100v1400z" />
    <glyph glyph-name="I" unicode="I" horiz-adv-x="200" 
d="M100 1400v-1400h-100v1400h100z" />
    <glyph glyph-name="J" unicode="J" 
d="M0 350v150h100v-150q0 -104 73 -177t177 -73t177 73t73 177v1050h100v-1050q0 -145 -102.5 -247.5t-247.5 -102.5t-247.5 102.5t-102.5 247.5z" />
    <glyph glyph-name="K" unicode="K" 
d="M700 400v-400h-100v400q0 104 -73 177t-177 73h-250v-650h-100v1400h100v-650h250q104 0 177 73t73 177v400h100v-400q0 -145 -102 -247q-31 -31 -66 -53q35 -22 66 -52q102 -103 102 -248z" />
    <glyph glyph-name="L" unicode="L" 
d="M100 100h600v-100h-700v1400h100v-1300z" />
    <glyph glyph-name="M" unicode="M" horiz-adv-x="900" 
d="M100 1114v-1114h-100v1400h142l255 -1214l255 1214h148v-1400h-100v1143l-240 -1143h-126z" />
    <glyph glyph-name="N" unicode="N" 
d="M100 1165v-1165h-100v1400h109l491 -1165v1165h100v-1400h-109z" />
    <glyph glyph-name="O" unicode="O" 
d="M0 1050q0 145 102.5 247.5t247.5 102.5t247.5 -102.5t102.5 -247.5v-700q0 -145 -102.5 -247.5t-247.5 -102.5t-247.5 102.5t-102.5 247.5v700zM600 1050q0 104 -73 177t-177 73t-177 -73t-73 -177v-700q0 -104 73 -177t177 -73t177 73t73 177v700z" />
    <glyph glyph-name="P" unicode="P" 
d="M600 1050q0 104 -73 177t-177 73h-250v-550h250q104 0 177 73t73 177v50zM350 1400q145 0 247.5 -102.5t102.5 -247.5v-50q0 -145 -102.5 -247.5t-247.5 -102.5h-250v-650h-100v1400h350z" />
    <glyph glyph-name="Q" unicode="Q" 
d="M0 1050q0 145 102.5 247.5t247.5 102.5t247.5 -102.5t102.5 -247.5v-700q0 -145 -102 -247q-85 -85 -198 -100v-103h-100v103q-113 15 -197 100q-103 102 -103 247v700zM600 1050q0 104 -73 177t-177 73t-177 -73t-73 -177v-700q0 -104 73 -177q55 -55 127 -68v195h100
v-195q72 13 127 68q73 73 73 177v700z" />
    <glyph glyph-name="R" unicode="R" 
d="M600 1050q0 104 -73 177t-177 73h-250v-550h250q104 0 177 73t73 177v50zM350 1400q145 0 247.5 -102.5t102.5 -247.5v-50q0 -145 -102 -247q-31 -31 -66 -53q35 -22 66 -52q102 -103 102 -248v-400h-100v400q0 104 -73 177t-177 73h-250v-650h-100v1400h350z" />
    <glyph glyph-name="S" unicode="S" 
d="M700 1050v-150h-100v150q0 104 -73 177t-177 73t-177 -73t-73 -177v-50q0 -104 73 -177t177 -73q145 0 247.5 -102.5t102.5 -247.5v-50q0 -145 -102.5 -247.5t-247.5 -102.5t-247.5 102.5t-102.5 247.5v150h100v-150q0 -104 73 -177t177 -73t177 73t73 177v50
q0 104 -73 177t-177 73q-145 0 -247.5 102.5t-102.5 247.5v50q0 145 102.5 247.5t247.5 102.5t247.5 -102.5t102.5 -247.5z" />
    <glyph glyph-name="T" unicode="T" 
d="M700 1400v-100h-300v-1300h-100v1300h-300v100h700z" />
    <glyph glyph-name="U" unicode="U" 
d="M0 350v1050h100v-1050q0 -104 73 -177t177 -73t177 73t73 177v1050h100v-1050q0 -145 -102.5 -247.5t-247.5 -102.5t-247.5 102.5t-102.5 247.5z" />
    <glyph glyph-name="V" unicode="V" 
d="M286 0l-294 1400h102l255 -1214l255 1214h102l-294 -1400h-126z" />
    <glyph glyph-name="W" unicode="W" horiz-adv-x="1400" 
d="M286 0l-294 1400h102l255 -1214l255 1214h108l255 -1214l255 1214h102l-294 -1400h-126l-246 1171l-246 -1171h-126z" />
    <glyph glyph-name="X" unicode="X" 
d="M700 400v-400h-100v400q0 104 -73 177t-177 73t-177 -73t-73 -177v-400h-100v400q0 145 103 248q30 30 65 52q-35 22 -65 53q-103 102 -103 247v400h100v-400q0 -104 73 -177t177 -73t177 73t73 177v400h100v-400q0 -145 -102 -247q-31 -31 -66 -53q35 -22 66 -52
q102 -103 102 -248z" />
    <glyph glyph-name="Y" unicode="Y" 
d="M400 653v-653h-100v653q-113 15 -197 100q-103 102 -103 247v400h100v-400q0 -104 73 -177t177 -73t177 73t73 177v400h100v-400q0 -145 -102 -247q-85 -85 -198 -100z" />
    <glyph glyph-name="Z" unicode="Z" 
d="M549 1300h-549v100h699l-548 -1300h549v-100h-699z" />
    <glyph glyph-name="bracketleft" unicode="[" horiz-adv-x="450" 
d="M350 1500v-100h-250v-1400h250v-100h-350v1600h350z" />
    <glyph glyph-name="backslash" unicode="\" 
d="M109 1400l590 -1400h-108l-590 1400h108z" />
    <glyph glyph-name="bracketright" unicode="]" horiz-adv-x="450" 
d="M350 1500v-1600h-350v100h250v1400h-250v100h350z" />
    <glyph glyph-name="underscore" unicode="_" 
d="M700 100v-100h-700v100h700z" />
    <glyph glyph-name="grave" unicode="`" horiz-adv-x="200" 
d="M-4 1399l186 -236l-78 -62l-186 236z" />
    <glyph glyph-name="a" unicode="a" 
d="M0 650q0 145 102.5 247.5t247.5 102.5t247.5 -102.5t102.5 -247.5v-650h-100v105l-2 -2q-103 -103 -248 -103t-247.5 102.5t-102.5 247.5v300zM600 650q0 104 -73 177t-177 73t-177 -73t-73 -177v-300q0 -104 73 -177t177 -73t177 73t73 177v300z" />
    <glyph glyph-name="b" unicode="b" 
d="M100 895l3 3q102 102 247 102t247.5 -102.5t102.5 -247.5v-300q0 -145 -102.5 -247.5t-247.5 -102.5t-247.5 102.5t-102.5 247.5v1050h100v-505zM600 650q0 104 -73 177t-177 73t-177 -73t-73 -177v-300q0 -104 73 -177t177 -73t177 73t73 177v300z" />
    <glyph glyph-name="c" unicode="c" 
d="M700 650v-50h-100v50q0 104 -73 177t-177 73t-177 -73t-73 -177v-300q0 -104 73 -177t177 -73t177 73t73 177v50h100v-50q0 -145 -102.5 -247.5t-247.5 -102.5t-247.5 102.5t-102.5 247.5v300q0 145 102.5 247.5t247.5 102.5t247.5 -102.5t102.5 -247.5z" />
    <glyph glyph-name="d" unicode="d" 
d="M0 650q0 145 102.5 247.5t247.5 102.5t248 -102q1 -2 2 -3v505h100v-1050q0 -145 -102.5 -247.5t-247.5 -102.5t-247.5 102.5t-102.5 247.5v300zM600 650q0 104 -73 177t-177 73t-177 -73t-73 -177v-300q0 -104 73 -177t177 -73t177 73t73 177v300z" />
    <glyph glyph-name="e" unicode="e" 
d="M0 650q0 145 102.5 247.5t247.5 102.5t247.5 -102.5t102.5 -247.5v-200h-600v-100q0 -104 73 -177t177 -73t177 73t73 177h100q0 -145 -102.5 -247.5t-247.5 -102.5t-247.5 102.5t-102.5 247.5v300zM600 650q0 104 -73 177t-177 73t-177 -73t-73 -177v-100h500v100z" />
    <glyph glyph-name="f" unicode="f" horiz-adv-x="450" 
d="M0 1050q0 145 102.5 247.5t247.5 102.5v-100q-104 0 -177 -73t-73 -177v-50h250v-100h-250v-900h-100v1050z" />
    <glyph glyph-name="g" unicode="g" 
d="M0 650q0 145 102.5 247.5t247.5 102.5t247.5 -102.5t102.5 -247.5v-700q0 -145 -102.5 -247.5t-247.5 -102.5t-247.5 102.5t-102.5 247.5h100q0 -104 73 -177t177 -73t177 73t73 177v155l-2 -2q-103 -103 -248 -103t-247.5 102.5t-102.5 247.5v300zM600 650
q0 104 -73 177t-177 73t-177 -73t-73 -177v-300q0 -104 73 -177t177 -73t177 73t73 177v300z" />
    <glyph glyph-name="h" unicode="h" 
d="M700 650v-650h-100v650q0 104 -73 177t-177 73t-177 -73t-73 -177v-650h-100v1400h100v-505l3 3q102 102 247 102t247.5 -102.5t102.5 -247.5z" />
    <glyph glyph-name="i" unicode="i" horiz-adv-x="200" 
d="M0 1200v100h100v-100h-100zM100 1000v-1000h-100v1000h100z" />
    <glyph glyph-name="j" unicode="j" horiz-adv-x="200" 
d="M0 1200v100h100v-100h-100zM0 0v1000h100v-1000q0 -145 -102.5 -247.5t-247.5 -102.5v100q104 0 177 73t73 177z" />
    <glyph glyph-name="k" unicode="k" horiz-adv-x="750" 
d="M650 200v-200h-100v200q0 104 -73 177t-177 73h-200v-450h-100v1400h100v-850h200q104 0 177 73t73 177v200h100v-200q0 -145 -102 -247q-31 -31 -66 -53q35 -22 66 -52q102 -103 102 -248z" />
    <glyph glyph-name="l" unicode="l" horiz-adv-x="200" 
d="M100 1400v-1400h-100v1400h100z" />
    <glyph glyph-name="m" unicode="m" horiz-adv-x="1400" 
d="M100 650v-650h-100v650q0 145 102.5 247.5t247.5 102.5t248 -102q30 -31 52 -66q22 35 53 66q102 102 247 102t247.5 -102.5t102.5 -247.5v-650h-100v650q0 104 -73 177t-177 73t-177 -73t-73 -177v-650h-100v650q0 104 -73 177t-177 73t-177 -73t-73 -177z" />
    <glyph glyph-name="n" unicode="n" 
d="M100 650v-650h-100v650q0 145 102.5 247.5t247.5 102.5t247.5 -102.5t102.5 -247.5v-650h-100v650q0 104 -73 177t-177 73t-177 -73t-73 -177z" />
    <glyph glyph-name="o" unicode="o" 
d="M0 650q0 145 102.5 247.5t247.5 102.5t247.5 -102.5t102.5 -247.5v-300q0 -145 -102.5 -247.5t-247.5 -102.5t-247.5 102.5t-102.5 247.5v300zM600 650q0 104 -73 177t-177 73t-177 -73t-73 -177v-300q0 -104 73 -177t177 -73t177 73t73 177v300z" />
    <glyph glyph-name="p" unicode="p" 
d="M700 350q0 -145 -102.5 -247.5t-247.5 -102.5t-247 103q-2 1 -3 2v-505h-100v1050q0 145 102.5 247.5t247.5 102.5t247.5 -102.5t102.5 -247.5v-300zM100 350q0 -104 73 -177t177 -73t177 73t73 177v300q0 104 -73 177t-177 73t-177 -73t-73 -177v-300z" />
    <glyph glyph-name="q" unicode="q" 
d="M600 105l-2 -2q-103 -103 -248 -103t-247.5 102.5t-102.5 247.5v300q0 145 102.5 247.5t247.5 102.5t247.5 -102.5t102.5 -247.5v-1050h-100v505zM100 350q0 -104 73 -177t177 -73t177 73t73 177v300q0 104 -73 177t-177 73t-177 -73t-73 -177v-300z" />
    <glyph glyph-name="r" unicode="r" horiz-adv-x="450" 
d="M0 650q0 145 102.5 247.5t247.5 102.5v-100q-104 0 -177 -73t-73 -177v-650h-100v650z" />
    <glyph glyph-name="s" unicode="s" 
d="M0 650q0 145 102.5 247.5t247.5 102.5t247.5 -102.5t102.5 -247.5h-100q0 104 -73 177t-177 73t-177 -73t-73 -177q0 -41 73 -70.5t177 -29.5q145 0 247.5 -58.5t102.5 -141.5q0 -145 -102.5 -247.5t-247.5 -102.5t-247.5 102.5t-102.5 247.5h100q0 -104 73 -177t177 -73
t177 73t73 177q0 41 -73 70.5t-177 29.5q-145 0 -247.5 58.5t-102.5 141.5z" />
    <glyph glyph-name="t" unicode="t" horiz-adv-x="450" 
d="M100 350q0 -104 73 -177t177 -73v-100q-145 0 -247.5 102.5t-102.5 247.5v1050h100v-400h250v-100h-250v-550z" />
    <glyph glyph-name="u" unicode="u" 
d="M0 350v650h100v-650q0 -104 73 -177t177 -73t177 73t73 177v650h100v-650q0 -145 -102.5 -247.5t-247.5 -102.5t-247.5 102.5t-102.5 247.5z" />
    <glyph glyph-name="v" unicode="v" 
d="M286 0l-294 1000h112l245 -863l245 863h112l-294 -1000h-126z" />
    <glyph glyph-name="w" unicode="w" horiz-adv-x="1400" 
d="M0 350v650h100v-650q0 -104 73 -177t177 -73t177 73t73 177v650h100v-650q0 -104 73 -177t177 -73t177 73t73 177v650h100v-650q0 -145 -102.5 -247.5t-247.5 -102.5t-247 103q-31 30 -53 65q-22 -35 -52 -65q-103 -103 -248 -103t-247.5 102.5t-102.5 247.5z" />
    <glyph glyph-name="x" unicode="x" 
d="M700 200v-200h-100v200q0 104 -73 177t-177 73t-177 -73t-73 -177v-200h-100v200q0 145 103 248q30 30 65 52q-35 22 -65 53q-103 102 -103 247v200h100v-200q0 -104 73 -177t177 -73t177 73t73 177v200h100v-200q0 -145 -102 -247q-31 -31 -66 -53q35 -22 66 -52
q102 -103 102 -248z" />
    <glyph glyph-name="y" unicode="y" 
d="M0 350v650h100v-650q0 -104 73 -177t177 -73t177 73t73 177v650h100v-1400h-100v505l-2 -2q-103 -103 -248 -103t-247.5 102.5t-102.5 247.5z" />
    <glyph glyph-name="z" unicode="z" 
d="M523 900h-523v100h699l-522 -900h523v-100h-699z" />
    <glyph glyph-name="braceleft" unicode="{" horiz-adv-x="700" 
d="M350 400v-150q0 -104 73 -177t177 -73v-100q-145 0 -247.5 102.5t-102.5 247.5v150q0 104 -73 177t-177 73v100q104 0 177 73t73 177v150q0 145 102.5 247.5t247.5 102.5v-100q-104 0 -177 -73t-73 -177v-150q0 -145 -102 -247q-31 -31 -66 -53q35 -22 66 -52
q102 -103 102 -248z" />
    <glyph glyph-name="bar" unicode="|" horiz-adv-x="200" 
d="M100 1400v-1400h-100v1400h100z" />
    <glyph glyph-name="braceright" unicode="}" horiz-adv-x="700" 
d="M353 648q30 30 65 52q-35 22 -65 53q-103 102 -103 247v150q0 104 -73 177t-177 73v100q145 0 247.5 -102.5t102.5 -247.5v-150q0 -104 73 -177t177 -73v-100q-104 0 -177 -73t-73 -177v-150q0 -145 -102.5 -247.5t-247.5 -102.5v100q104 0 177 73t73 177v150
q0 145 103 248z" />
    <glyph glyph-name="sterling" unicode="&#xa3;" 
d="M0 1050q0 145 102.5 247.5t247.5 102.5t247.5 -102.5t102.5 -247.5v-150h-100v150q0 104 -73 177t-177 73t-177 -73t-73 -177v-300h400v-100h-400v-150h400v-100h-400v-300h600v-100h-700v1050z" />
    <glyph glyph-name="dieresis" unicode="&#xa8;" horiz-adv-x="400" 
d="M100 1400v-100h-100v100h100zM300 1400v-100h-100v100h100z" />
    <glyph glyph-name="acute" unicode="&#xb4;" horiz-adv-x="200" 
d="M183 1336l-187 -234l-79 62l187 234z" />
    <glyph glyph-name="Agrave" unicode="&#xc0;" 
d="M349 1214l-160 -764h321zM168 350l-74 -350h-102l294 1400h126l294 -1400h-102l-73 350h-363zM251 1809l186 -236l-78 -62l-186 236z" />
    <glyph glyph-name="Aacute" unicode="&#xc1;" 
d="M349 1214l-160 -764h321zM168 350l-74 -350h-102l294 1400h126l294 -1400h-102l-73 350h-363zM526 1746l-187 -234l-79 62l187 234z" />
    <glyph glyph-name="Adieresis" unicode="&#xc4;" 
d="M349 1214l-160 -764h321zM168 350l-74 -350h-102l294 1400h126l294 -1400h-102l-73 350h-363zM299 1810v-100h-100v100h100zM499 1810v-100h-100v100h100z" />
    <glyph glyph-name="Ccedilla" unicode="&#xc7;" 
d="M300 3q-113 15 -197 100q-103 102 -103 247v700q0 145 102.5 247.5t247.5 102.5t247.5 -102.5t102.5 -247.5v-150h-100v150q0 104 -73 177t-177 73t-177 -73t-73 -177v-700q0 -104 73 -177t177 -73t177 73t73 177v150h100v-150q0 -145 -102 -247q-85 -85 -198 -100v-116
q11 -7 21 -16q29 -30 29 -71t-29.5 -70.5t-70.5 -29.5t-70.5 29.5t-29.5 70.5t30 71q9 9 20 16v116z" />
    <glyph glyph-name="Egrave" unicode="&#xc8;" 
d="M700 1400v-100h-600v-550h450v-100h-450v-550h600v-100h-700v1400h700zM252 1809l186 -236l-78 -62l-186 236z" />
    <glyph glyph-name="Eacute" unicode="&#xc9;" 
d="M700 1400v-100h-600v-550h450v-100h-450v-550h600v-100h-700v1400h700zM527 1746l-187 -234l-79 62l187 234z" />
    <glyph glyph-name="Edieresis" unicode="&#xcb;" 
d="M700 1400v-100h-600v-550h450v-100h-450v-550h600v-100h-700v1400h700zM300 1810v-100h-100v100h100zM500 1810v-100h-100v100h100z" />
    <glyph glyph-name="Igrave" unicode="&#xcc;" horiz-adv-x="200" 
d="M100 1400v-1400h-100v1400h100zM-48 1809l186 -236l-78 -62l-186 236z" />
    <glyph glyph-name="Iacute" unicode="&#xcd;" horiz-adv-x="200" 
d="M100 1400v-1400h-100v1400h100zM227 1746l-187 -234l-79 62l187 234z" />
    <glyph glyph-name="Idieresis" unicode="&#xcf;" horiz-adv-x="200" 
d="M100 1400v-1400h-100v1400h100zM0 1810v-100h-100v100h100zM200 1810v-100h-100v100h100z" />
    <glyph glyph-name="Ograve" unicode="&#xd2;" 
d="M0 1050q0 145 102.5 247.5t247.5 102.5t247.5 -102.5t102.5 -247.5v-700q0 -145 -102.5 -247.5t-247.5 -102.5t-247.5 102.5t-102.5 247.5v700zM600 1050q0 104 -73 177t-177 73t-177 -73t-73 -177v-700q0 -104 73 -177t177 -73t177 73t73 177v700zM252 1809l186 -236
l-78 -62l-186 236z" />
    <glyph glyph-name="Oacute" unicode="&#xd3;" 
d="M0 1050q0 145 102.5 247.5t247.5 102.5t247.5 -102.5t102.5 -247.5v-700q0 -145 -102.5 -247.5t-247.5 -102.5t-247.5 102.5t-102.5 247.5v700zM600 1050q0 104 -73 177t-177 73t-177 -73t-73 -177v-700q0 -104 73 -177t177 -73t177 73t73 177v700zM527 1746l-187 -234
l-79 62l187 234z" />
    <glyph glyph-name="Odieresis" unicode="&#xd6;" 
d="M0 1050q0 145 102.5 247.5t247.5 102.5t247.5 -102.5t102.5 -247.5v-700q0 -145 -102.5 -247.5t-247.5 -102.5t-247.5 102.5t-102.5 247.5v700zM600 1050q0 104 -73 177t-177 73t-177 -73t-73 -177v-700q0 -104 73 -177t177 -73t177 73t73 177v700zM300 1810v-100h-100
v100h100zM500 1810v-100h-100v100h100z" />
    <glyph glyph-name="Ugrave" unicode="&#xd9;" 
d="M0 350v1050h100v-1050q0 -104 73 -177t177 -73t177 73t73 177v1050h100v-1050q0 -145 -102.5 -247.5t-247.5 -102.5t-247.5 102.5t-102.5 247.5zM252 1809l186 -236l-78 -62l-186 236z" />
    <glyph glyph-name="Uacute" unicode="&#xda;" 
d="M0 350v1050h100v-1050q0 -104 73 -177t177 -73t177 73t73 177v1050h100v-1050q0 -145 -102.5 -247.5t-247.5 -102.5t-247.5 102.5t-102.5 247.5zM527 1746l-187 -234l-79 62l187 234z" />
    <glyph glyph-name="Udieresis" unicode="&#xdc;" 
d="M0 350v1050h100v-1050q0 -104 73 -177t177 -73t177 73t73 177v1050h100v-1050q0 -145 -102.5 -247.5t-247.5 -102.5t-247.5 102.5t-102.5 247.5zM300 1810v-100h-100v100h100zM500 1810v-100h-100v100h100z" />
    <glyph glyph-name="Yacute" unicode="&#xdd;" 
d="M400 653v-653h-100v653q-113 15 -197 100q-103 102 -103 247v400h100v-400q0 -104 73 -177t177 -73t177 73t73 177v400h100v-400q0 -145 -102 -247q-85 -85 -198 -100zM527 1746l-187 -234l-79 62l187 234z" />
    <glyph glyph-name="agrave" unicode="&#xe0;" 
d="M0 650q0 145 102.5 247.5t247.5 102.5t247.5 -102.5t102.5 -247.5v-650h-100v105l-2 -2q-103 -103 -248 -103t-247.5 102.5t-102.5 247.5v300zM600 650q0 104 -73 177t-177 73t-177 -73t-73 -177v-300q0 -104 73 -177t177 -73t177 73t73 177v300zM252 1399l186 -236
l-78 -62l-186 236z" />
    <glyph glyph-name="aacute" unicode="&#xe1;" 
d="M0 650q0 145 102.5 247.5t247.5 102.5t247.5 -102.5t102.5 -247.5v-650h-100v105l-2 -2q-103 -103 -248 -103t-247.5 102.5t-102.5 247.5v300zM600 650q0 104 -73 177t-177 73t-177 -73t-73 -177v-300q0 -104 73 -177t177 -73t177 73t73 177v300zM527 1336l-187 -234
l-79 62l187 234z" />
    <glyph glyph-name="adieresis" unicode="&#xe4;" 
d="M0 650q0 145 102.5 247.5t247.5 102.5t247.5 -102.5t102.5 -247.5v-650h-100v105l-2 -2q-103 -103 -248 -103t-247.5 102.5t-102.5 247.5v300zM600 650q0 104 -73 177t-177 73t-177 -73t-73 -177v-300q0 -104 73 -177t177 -73t177 73t73 177v300zM300 1400v-100h-100v100
h100zM500 1400v-100h-100v100h100z" />
    <glyph glyph-name="ccedilla" unicode="&#xe7;" 
d="M300 3q-113 15 -197 100q-103 102 -103 247v300q0 145 102.5 247.5t247.5 102.5t247.5 -102.5t102.5 -247.5v-50h-100v50q0 104 -73 177t-177 73t-177 -73t-73 -177v-300q0 -104 73 -177t177 -73t177 73t73 177v50h100v-50q0 -145 -102 -247q-85 -85 -198 -100v-116
q11 -7 21 -16q29 -30 29 -71t-29.5 -70.5t-70.5 -29.5t-70.5 29.5t-29.5 70.5t30 71q9 9 20 16v116z" />
    <glyph glyph-name="egrave" unicode="&#xe8;" 
d="M0 650q0 145 102.5 247.5t247.5 102.5t247.5 -102.5t102.5 -247.5v-200h-600v-100q0 -104 73 -177t177 -73t177 73t73 177h100q0 -145 -102.5 -247.5t-247.5 -102.5t-247.5 102.5t-102.5 247.5v300zM600 650q0 104 -73 177t-177 73t-177 -73t-73 -177v-100h500v100z
M252 1399l186 -236l-78 -62l-186 236z" />
    <glyph glyph-name="eacute" unicode="&#xe9;" 
d="M0 650q0 145 102.5 247.5t247.5 102.5t247.5 -102.5t102.5 -247.5v-200h-600v-100q0 -104 73 -177t177 -73t177 73t73 177h100q0 -145 -102.5 -247.5t-247.5 -102.5t-247.5 102.5t-102.5 247.5v300zM600 650q0 104 -73 177t-177 73t-177 -73t-73 -177v-100h500v100z
M527 1336l-187 -234l-79 62l187 234z" />
    <glyph glyph-name="edieresis" unicode="&#xeb;" 
d="M0 650q0 145 102.5 247.5t247.5 102.5t247.5 -102.5t102.5 -247.5v-200h-600v-100q0 -104 73 -177t177 -73t177 73t73 177h100q0 -145 -102.5 -247.5t-247.5 -102.5t-247.5 102.5t-102.5 247.5v300zM600 650q0 104 -73 177t-177 73t-177 -73t-73 -177v-100h500v100z
M300 1400v-100h-100v100h100zM500 1400v-100h-100v100h100z" />
    <glyph glyph-name="igrave" unicode="&#xec;" horiz-adv-x="200" 
d="M100 1000v-1000h-100v1000h100zM-48 1399l186 -236l-78 -62l-186 236z" />
    <glyph glyph-name="iacute" unicode="&#xed;" horiz-adv-x="200" 
d="M100 1000v-1000h-100v1000h100zM227 1336l-187 -234l-79 62l187 234z" />
    <glyph glyph-name="idieresis" unicode="&#xef;" horiz-adv-x="200" 
d="M100 1000v-1000h-100v1000h100zM0 1400v-100h-100v100h100zM200 1400v-100h-100v100h100z" />
    <glyph glyph-name="ograve" unicode="&#xf2;" 
d="M0 650q0 145 102.5 247.5t247.5 102.5t247.5 -102.5t102.5 -247.5v-300q0 -145 -102.5 -247.5t-247.5 -102.5t-247.5 102.5t-102.5 247.5v300zM600 650q0 104 -73 177t-177 73t-177 -73t-73 -177v-300q0 -104 73 -177t177 -73t177 73t73 177v300zM252 1399l186 -236
l-78 -62l-186 236z" />
    <glyph glyph-name="oacute" unicode="&#xf3;" 
d="M0 650q0 145 102.5 247.5t247.5 102.5t247.5 -102.5t102.5 -247.5v-300q0 -145 -102.5 -247.5t-247.5 -102.5t-247.5 102.5t-102.5 247.5v300zM600 650q0 104 -73 177t-177 73t-177 -73t-73 -177v-300q0 -104 73 -177t177 -73t177 73t73 177v300zM527 1336l-187 -234
l-79 62l187 234z" />
    <glyph glyph-name="odieresis" unicode="&#xf6;" 
d="M0 650q0 145 102.5 247.5t247.5 102.5t247.5 -102.5t102.5 -247.5v-300q0 -145 -102.5 -247.5t-247.5 -102.5t-247.5 102.5t-102.5 247.5v300zM600 650q0 104 -73 177t-177 73t-177 -73t-73 -177v-300q0 -104 73 -177t177 -73t177 73t73 177v300zM300 1400v-100h-100v100
h100zM500 1400v-100h-100v100h100z" />
    <glyph glyph-name="ugrave" unicode="&#xf9;" 
d="M0 350v650h100v-650q0 -104 73 -177t177 -73t177 73t73 177v650h100v-650q0 -145 -102.5 -247.5t-247.5 -102.5t-247.5 102.5t-102.5 247.5zM252 1399l186 -236l-78 -62l-186 236z" />
    <glyph glyph-name="uacute" unicode="&#xfa;" 
d="M0 350v650h100v-650q0 -104 73 -177t177 -73t177 73t73 177v650h100v-650q0 -145 -102.5 -247.5t-247.5 -102.5t-247.5 102.5t-102.5 247.5zM527 1336l-187 -234l-79 62l187 234z" />
    <glyph glyph-name="udieresis" unicode="&#xfc;" 
d="M0 350v650h100v-650q0 -104 73 -177t177 -73t177 73t73 177v650h100v-650q0 -145 -102.5 -247.5t-247.5 -102.5t-247.5 102.5t-102.5 247.5zM300 1400v-100h-100v100h100zM500 1400v-100h-100v100h100z" />
    <glyph glyph-name="yacute" unicode="&#xfd;" 
d="M0 350v650h100v-650q0 -104 73 -177t177 -73t177 73t73 177v650h100v-1400h-100v505l-2 -2q-103 -103 -248 -103t-247.5 102.5t-102.5 247.5zM527 1336l-187 -234l-79 62l187 234z" />
    <glyph glyph-name="ydieresis" unicode="&#xff;" 
d="M0 350v650h100v-650q0 -104 73 -177t177 -73t177 73t73 177v650h100v-1400h-100v505l-2 -2q-103 -103 -248 -103t-247.5 102.5t-102.5 247.5zM300 1400v-100h-100v100h100zM500 1400v-100h-100v100h100z" />
  </font>
</defs>
</svg>
